<svg xmlns="http://www.w3.org/2000/svg" viewBox="0 0 1920 1080" preserveAspectRatio="xMidYMid slice">
  <defs>
    <linearGradient id="au-sky" x1="0" y1="0" x2="0" y2="1">
      <stop offset="0%" stop-color="#020617"/>
      <stop offset="42%" stop-color="#0b1b33"/>
      <stop offset="78%" stop-color="#102a3a"/>
      <stop offset="100%" stop-color="#07141f"/>
    </linearGradient>
    <radialGradient id="au-glow" cx="48%" cy="38%" r="42%">
      <stop offset="0%" stop-color="#5eead4" stop-opacity=".22"/>
      <stop offset="100%" stop-color="#5eead4" stop-opacity="0"/>
    </radialGradient>
    <filter id="au-soft" x="-40%" y="-40%" width="180%" height="180%">
      <feGaussianBlur stdDeviation="42"/>
    </filter>
    <filter id="au-softer" x="-50%" y="-50%" width="200%" height="200%">
      <feGaussianBlur stdDeviation="70"/>
    </filter>
  </defs>
  <rect width="1920" height="1080" fill="url(#au-sky)"/>
  <ellipse cx="920" cy="390" rx="760" ry="280" fill="url(#au-glow)"/>
  <g filter="url(#au-softer)">
    <ellipse cx="640" cy="280" rx="420" ry="90" fill="#c084fc" opacity=".38" transform="rotate(-12 640 280)"/>
    <ellipse cx="1180" cy="220" rx="380" ry="70" fill="#818cf8" opacity=".32" transform="rotate(8 1180 220)"/>
  </g>
  <g filter="url(#au-soft)">
    <ellipse cx="780" cy="360" rx="560" ry="58" fill="#5eead4" opacity=".55" transform="rotate(-8 780 360)"/>
    <ellipse cx="1040" cy="420" rx="480" ry="42" fill="#34d399" opacity=".42" transform="rotate(6 1040 420)"/>
    <ellipse cx="560" cy="470" rx="300" ry="36" fill="#a7f3d0" opacity=".35" transform="rotate(-18 560 470)"/>
    <ellipse cx="1320" cy="340" rx="260" ry="30" fill="#ddd6fe" opacity=".4" transform="rotate(14 1320 340)"/>
  </g>
  <g fill="#e2e8f0" opacity=".45">
    <circle cx="160" cy="80" r="1.2"/>
    <circle cx="310" cy="140" r="1"/>
    <circle cx="470" cy="60" r="1.4"/>
    <circle cx="640" cy="110" r=".9"/>
    <circle cx="820" cy="48" r="1.1"/>
    <circle cx="990" cy="96" r=".8"/>
    <circle cx="1210" cy="54" r="1.3"/>
    <circle cx="1430" cy="120" r="1"/>
    <circle cx="1610" cy="70" r="1.2"/>
    <circle cx="1780" cy="150" r=".9"/>
    <circle cx="240" cy="210" r=".8"/>
    <circle cx="1520" cy="200" r="1.1"/>
  </g>
  <path d="M0 780 C 220 740 360 800 560 760 C 800 710 980 790 1240 750 C 1500 710 1700 790 1920 760 L 1920 1080 L 0 1080 Z" fill="#030712"/>
  <path d="M0 860 C 300 820 620 900 960 850 C 1300 800 1580 890 1920 840 L 1920 1080 L 0 1080 Z" fill="#020617"/>
  <rect y="860" width="1920" height="220" fill="#020617" opacity=".35"/>
</svg>
