<svg xmlns="http://www.w3.org/2000/svg" viewBox="0 0 1920 1080" preserveAspectRatio="xMidYMid slice">
  <defs>
    <linearGradient id="o-sky" x1="0" y1="0" x2="0" y2="1">
      <stop offset="0%" stop-color="#9ec5e0"/>
      <stop offset="42%" stop-color="#d5e7ef"/>
      <stop offset="100%" stop-color="#6f93a8"/>
    </linearGradient>
    <linearGradient id="o-sea" x1="0" y1="0" x2="0" y2="1">
      <stop offset="0%" stop-color="#cfe0e8" stop-opacity=".2"/>
      <stop offset="100%" stop-color="#4d7388"/>
    </linearGradient>
  </defs>
  <rect width="1920" height="1080" fill="url(#o-sky)"/>
  <ellipse cx="1480" cy="160" rx="220" ry="80" fill="#fff" opacity=".55"/>
  <ellipse cx="420" cy="200" rx="280" ry="70" fill="#fff" opacity=".4"/>
  <ellipse cx="900" cy="140" rx="180" ry="50" fill="#fff" opacity=".35"/>
  <rect y="620" width="1920" height="460" fill="url(#o-sea)"/>
  <path d="M0 640 C 260 600 480 680 760 630 C 1080 570 1320 670 1920 610 L 1920 720 C 1400 760 900 680 0 740 Z" fill="#ffffff" opacity=".28"/>
  <path d="M0 700 C 300 660 620 740 980 690 C 1320 640 1600 730 1920 680 L 1920 1080 L 0 1080 Z" fill="#5c7f94" opacity=".45"/>
  <ellipse cx="200" cy="860" rx="420" ry="50" fill="#fff" opacity=".12"/>
</svg>
